Patient4_TMGait_0pt8_01_left_32_EMG.mot
version=1
nRows=40
nColumns=33
inDegrees=no
endheader
time	1LAddLong	2LGlutMax	3LGlutMed	4LIliopsoas	5LSemiMemb	6LBicFemLong	7LRecFem	8LVastMed	9LVastLat	10LGasMed	11LTibAnt	12lTibPost	13LPeroneusLong	14LSol	15LExtDigLong	16LFlexDigLong	17RAddLong	18RGlutMax	19RGlutMed	20RIliopsoas	21RSemiMemb	22RBicFemLong	23RRecFem	24RVastMed	25RVastLat	26RGasMed	27RTibAnt	28RTibPost	29RPeroneusLong	30RSol	31RExtDigLong	32RFlexDigLong
35.21	0.004883	1.0078	-0.011597	0.024261	-0.00473	-0.011597	0.11093	0.005493	-0.56503	-0.002899	-0.096283	0.014954	0.010681	0.032043	0.058289	-0.018005	0.03006	0.31265	0.85525	-0.01709	0.11841	-0.1091	0.21606	-0.022125	-0.010529	-0.13825	-0.54703	-0.036163	0.17197	-0.069275	-0.002289	0.000763
35.211	-0.005035	1.0019	-0.018311	0.006256	-0.008392	-0.026398	0.090637	0.005493	-0.43655	-0.011139	-0.056	0.010223	0.018768	0.026703	0.030518	-0.017548	-0.00824	0.15396	0.38803	-0.047607	-0.0383	-0.062561	0.11795	0.003052	-0.002136	-0.014343	-0.14633	-0.013885	-0.020294	0.19913	-0.005646	-0.016632
35.212	0.005188	1.033	0.005646	-0.00946	-0.006714	-0.034637	0.074768	0.013733	-0.32181	-0.027008	-0.033722	0.008698	0.066986	0.003967	0.029755	-0.010681	-0.010986	0.059967	0.62882	-0.12039	-0.18814	0.07431	-0.13443	-0.076904	0.030975	0.033417	-0.24506	-0.024109	-0.46982	0.20691	-0.006256	-0.011749
35.213	-0.007172	0.97733	-0.028076	0.001831	-0.010834	-0.04837	0.057983	0.001221	-0.20462	-0.025787	0.053101	0.01236	0.050812	-0.089264	-0.08194	-0.005341	-0.011292	0.1471	0.22461	-0.00412	-0.33127	0.1564	-0.19928	-0.050354	0.077515	0.036926	-0.084839	0.00824	-0.64651	0.071411	-0.010071	-0.015717
35.214	0.005035	0.92895	-0.042114	-0.011139	-0.00946	-0.046387	0.069275	0.002441	-0.12421	-0.041962	0.063782	0.014801	0.015717	-0.14725	-0.12604	0.000763	-0.009003	0.17868	0.20065	0.018311	-0.078888	0.19501	0.032806	-0.008545	-0.0177	0.013428	-0.094147	0.14862	-0.062256	0.19043	-0.006409	-0.023499
35.215	0.009003	0.82092	-0.070496	-0.002441	-0.002747	-0.047302	0.039978	0.007935	-0.055389	-0.026703	0.025177	0.002747	0.018158	-0.095062	-0.059204	-0.009003	-0.025787	0.26032	0.29968	-0.03891	0.15289	0.11948	0.074615	0.018921	-0.066986	-0.001373	-0.11536	0.06485	0.058594	0.48187	-0.004578	-0.011597
35.216	0.014954	0.76721	-0.072937	0.004272	-0.010071	-0.04425	0.04364	0.00412	0.018005	0.036316	0.023651	0.012665	-0.048065	-0.06073	0.029144	-0.002747	-0.024414	0.25589	0.28458	-0.06424	-0.006714	0.015106	-0.007629	0.074005	0.035706	0.013885	-0.036469	-0.1445	0.14511	0.38864	-0.004883	-0.001068
35.217	0.011444	0.64621	-0.06897	-0.00824	-0.009003	-0.042114	0.040436	0.008545	0.071564	0.050354	0.043945	0.009308	-0.048676	-0.11154	0.092621	0.00351	-0.039368	0.25574	-0.18616	-0.034027	0.2269	-0.12131	0.018463	0.072174	0.074158	0.067139	-0.045319	-0.10178	0.14984	0.25726	-0.002899	0.001984
35.218	-0.003662	0.63019	-0.061646	-0.003052	-0.00824	-0.06546	0.043335	-0.001221	0.12955	0.046082	0.045319	0.008087	-0.02594	-0.007935	0.11734	0.000305	-0.028229	0.26535	-0.13626	-0.06546	0.11841	-0.20035	-0.035095	0.12177	0.072174	0.066223	-0.030823	0.1033	-0.2214	0.16403	-0.003815	-0.003052
35.219	0.008545	0.64712	-0.051727	0.012512	0.000458	-0.070038	0.024719	0.005493	0.17303	0.024109	0.034485	0.005798	0.029297	0.033875	0.1294	0.006561	0.002747	0.27435	0.18249	0.014648	-0.00824	-0.17792	0.12039	0.099487	0.19806	0.041351	-0.054626	0.043182	-0.58868	-0.085602	-0.005493	-0.010986
35.22	0.018921	0.62683	-0.06485	0.026855	-0.003967	-0.079956	0.010376	0.005798	0.20737	-0.024109	0.034332	-0.00412	-0.008545	-0.068359	0.001831	0.005188	0.040741	0.26749	0.10223	0.12848	0.070496	-0.12085	0.40924	-0.022736	0.15076	0.012207	0.016174	0.009308	-0.52261	-0.40588	-0.007629	-0.005341
35.221	0.004883	0.62302	-0.021515	0.002289	-0.003204	-0.089569	0.006866	0.001068	0.23972	-0.028381	0.015106	0.017395	-0.010681	-0.121	0.097961	0.008087	0.064392	0.22003	-0.22018	0.1297	-0.012817	-0.084229	0.46585	-0.1944	0.15518	0.028534	-0.24262	-0.000763	-0.055847	-0.49133	-0.001373	0.005798
35.222	0.003815	0.61264	0.034943	0.006104	0.002594	-0.06012	0.010376	0.007935	0.27222	-0.009003	0.018616	0.004425	0.010986	-0.049591	-0.062103	0.002136	0.039673	0.3035	-0.41885	0.066071	-0.14099	0.06546	0.36407	-0.37521	0.34347	0.019836	-0.20233	-0.004425	0.76233	-0.23895	-0.003204	-0.001373
35.223	-0.000763	0.59433	0.028076	-0.010681	0.005493	-0.080719	0.009003	0.000763	0.26977	-0.035095	0.016632	0.00946	0.028687	-0.034637	0.34775	0.012817	-0.011902	0.3067	-0.25314	0.020142	-0.19699	0.059509	0.12619	-0.39917	0.38452	-0.003357	0.18417	-0.013123	0.60516	0.23315	-0.003052	-0.002136
35.224	0.004883	0.57877	-0.016022	0.045166	-0.003967	-0.076904	-0.008545	0.002747	0.29221	-0.045319	0.078583	0.012054	0.007477	-0.14191	-0.19959	0.015259	-0.087738	0.28336	0.22522	-0.005798	0.000763	0.061646	-0.39368	-0.14832	0.42633	-0.000916	0.46661	-0.013275	0.22354	0.22415	-0.001526	-0.009308
35.225	0.00412	0.56946	0.00412	0.040588	0.000763	-0.074158	0.001068	0.003052	0.28961	-0.035248	0.058289	0.011902	0.006561	-0.13458	-0.078583	0.020294	-0.070496	0.27298	0.6192	-0.00351	-0.2153	0.061951	-0.59357	-0.034637	0.62531	-0.001678	0.62195	-0.001831	0.12283	-0.023041	-0.005188	-0.006104
35.226	0.00885	0.55573	0.022888	-0.007324	0.001984	-0.052948	-0.001068	0.002441	0.30182	-0.020905	0.045929	0.008087	-0.027161	-0.077362	-0.027313	0.030212	-0.033417	0.23834	0.35004	0.067596	-0.31281	0.015259	-0.55893	0.068054	0.61661	0.011292	0.24292	0.004425	0.23056	-0.28946	-0.007172	-0.004883
35.227	0.006104	0.56183	0.014954	-0.020447	0.002747	-0.058899	-0.012054	0.009003	0.31555	-0.035553	0.006866	-0.005493	-0.031586	0.024414	-0.067291	0.018768	-0.024261	0.2507	0.26535	0.056305	0.27588	-0.027313	-0.51743	0.023041	0.57083	0.016022	-1.0254	-0.013275	0.32272	-0.27084	-0.002136	-0.000458
35.228	0.005188	0.54947	0.010681	-0.017395	-0.006104	-0.064697	-0.025787	0.000153	0.3122	-0.036011	-0.050964	0.008698	-0.013885	0.075378	-0.058289	0.020142	-0.000763	0.22781	0.27008	-0.065155	0.19333	-0.023041	-0.16571	0.14862	0.29572	0.009155	-1.3785	-0.012054	0.10971	-0.07782	-0.00061	-0.007172
35.229	0.009918	0.54275	-0.000916	-0.006409	-0.011902	-0.071869	-0.014343	0.00473	0.30975	-0.040894	-0.083313	0.003967	0.018005	0.019684	-0.13748	0.016479	0.001068	0.17425	0.14618	-0.17319	0.1033	0.002441	-0.048218	0.14221	0.079041	0.003815	-0.87601	-0.054779	-0.10498	0.099792	-0.005035	-0.009155
35.23	0.008087	0.5307	0.021057	0.003052	-0.004883	-0.067139	-0.03067	0.004272	0.31357	-0.034637	-0.093689	0.004272	0.036163	-0.011902	-0.12405	0.020905	-0.023804	0.1355	0.28641	-0.13321	0.1004	0.021362	-0.048065	0.21912	-0.19882	-0.001068	-0.76355	-0.000305	-0.43625	0.26169	-0.007019	-0.010376
35.231	0.007629	0.53299	0.035248	0.017853	0.019531	-0.08194	-0.025635	-0.001221	0.29938	-0.028992	-0.030365	0.006714	0.04837	-0.026703	0.000763	0.012512	-0.036926	0.10819	0.17288	-0.030365	0.072174	-0.010071	0.020752	0.14755	-0.41489	-0.009003	-0.37827	-0.013123	-0.33814	0.25711	-0.006256	-0.011749
35.232	0.008392	0.50018	0.024414	0.014496	0.010071	-0.055847	-0.010223	-0.005493	0.28992	-0.052948	0.061493	0.006104	0.059052	-0.029602	0.050812	0.029449	-0.002594	0.13168	0.20493	0.088654	-0.019226	0.022278	0.20996	0.006256	-1.1366	-0.006561	0.20355	-0.011139	0.19989	0.22217	-0.003967	-0.012207
35.233	0.011902	0.50507	0.02243	0.006104	0.005646	-0.048523	-0.029297	0.003815	0.28671	-0.03891	0.086823	-0.001526	0.040588	0.022888	0.12482	0.016022	0.036774	0.1503	0.15671	0.12878	-0.024567	-0.058289	0.13351	-0.14252	-1.0303	-0.000458	0.78461	-0.010376	0.28381	0.1712	-0.009003	-0.00351
35.234	0.014496	0.47928	0.020294	0.005493	-0.024872	-0.084991	-0.009918	-0.002441	0.29053	-0.069427	0.014191	0.003052	0.038147	0.079193	0.14465	0.015564	0.052185	0.11276	0.06897	0.041962	0.08667	-0.18356	-0.05661	-0.081787	-0.53238	-0.007782	0.6546	-0.003815	0.005188	0.067444	-0.005341	-0.001984
35.235	0.016632	0.45959	0.022278	0.00351	-0.022278	-0.14847	-0.032654	0.002441	0.27512	-0.083923	-0.014496	0.008698	0.016479	0.029907	0.26443	0.010986	0.029755	0.17059	0.354	-0.08316	0.072174	-0.14572	-0.23483	-0.033264	-0.36575	-0.011444	0.42862	-0.003204	-0.13443	0.069275	-0.003052	-0.00412
35.236	0.010529	0.47333	0.015411	0.016632	0.016632	-0.1471	-0.007172	0.001831	0.28717	-0.079346	-0.037842	0.007935	0.029907	-0.007935	0.001526	0.022278	0.005493	0.11108	0.46814	-0.085144	-0.16281	-0.005341	-0.12466	-0.032501	-0.21347	-0.012817	0.2832	-0.010223	-0.23758	0.14389	-0.004425	-0.001373
35.237	0.017395	0.45227	0.020142	0.019379	0.031738	-0.12222	-0.021667	0.008392	0.28015	-0.078125	0.04837	0.00885	0.04776	-0.029449	-0.19424	0.01709	0.00412	0.049286	0.26032	0.021973	-0.42801	0.089874	0.039978	0.023956	-0.15793	-0.009155	0.03418	-0.001984	-0.19745	0.15076	-0.001068	-0.001221
35.238	0.019531	0.44067	0.009308	0.008698	0.023346	-0.11871	-0.014038	0.010529	0.2861	-0.05127	0.056915	0.006256	0.081024	-0.14114	0.012512	0.013885	-0.023651	0.089417	0.14969	0.10208	-0.31128	0.066681	0.039063	0.13443	-0.026245	-0.014954	-0.1532	-0.000763	-0.032501	0.17777	-0.004578	-0.005646
35.239	0.012817	0.42267	-0.005798	0.013733	0.012817	-0.097961	-0.018158	0.025177	0.29312	-0.041351	0.056458	0.010223	0.094604	-0.17792	-0.021973	0.004578	-0.006256	0.094757	-0.060272	0.13412	0.30228	-0.049591	-0.031433	0.10117	0.054779	-0.005798	-0.21454	-0.004272	0.53818	0.16678	-0.002441	-0.004272
35.24	0.024414	0.42282	-0.004272	0.003815	0.009613	-0.10544	-0.006866	-0.019531	0.28305	-0.009613	0.081024	-0.001068	0.11032	-0.17578	-0.17487	0.003357	-0.010376	0.11765	-0.080261	0.020447	0.18692	-0.020599	0.022736	0.061951	0.065155	-0.006561	-0.16983	-0.002289	0.25024	0.13855	-0.003662	-0.008545
35.241	0.010223	0.39093	-0.005798	0.011597	-0.015411	-0.14175	-0.006409	0.002289	0.26215	0.010376	0.04715	0.005951	0.095978	-0.22064	-0.049133	0.004272	-0.03006	0.11169	-0.047913	-0.064545	-0.12268	-0.022888	-0.13596	0.077362	0.019226	-0.006256	-0.052795	-0.007324	0.20828	0.15732	-0.004272	-0.00473
35.242	0.007324	0.38895	-0.022278	0.01297	-0.019684	-0.13962	-0.005341	0.004883	0.26581	-0.007019	-0.052185	0.005798	0.11124	-0.22186	0.3894	-0.006256	-0.030212	0.16815	0.09079	-0.032654	-0.18616	-0.13428	-0.18112	0.062103	0.003052	-0.007019	-0.103	-0.010529	0.050354	0.13855	-0.003662	-0.005493
35.243	0.016327	0.41382	-0.009918	0.010071	-0.00946	-0.15518	-0.03006	0.001526	0.27069	0.001831	-0.037079	-0.001984	0.056152	-0.065002	0.2301	-0.003967	-0.023499	0.19104	0.065002	-0.042419	-0.16174	-0.1329	-0.10452	0.0383	-0.024261	-0.010986	-0.06134	-0.013275	-0.12772	0.063782	-0.003662	-0.010681
35.244	0.010529	0.40024	0.017548	0.019989	-0.009155	-0.15884	-0.010376	0.002441	0.25864	-0.024109	-0.044708	0.000305	0.058289	0.054169	-0.46829	-0.00885	-0.002136	0.18356	-0.061951	0	-0.12421	-0.069733	-0.082397	-0.05661	0.020294	-0.00824	-0.083618	-0.02182	-0.13184	-0.057983	-0.002899	-0.015259
35.245	0.014038	0.39841	0.050507	0.007782	-0.003052	-0.1358	-0.024414	-0.00351	0.25345	-0.033112	-0.041199	0.001526	0.027618	0.040894	-0.27512	-0.000763	0.004883	0.1947	0.25116	0.059662	-0.13306	-0.06073	-0.058289	-0.070343	0.10803	0.00061	-0.019379	-0.035706	0.068665	-0.10574	-0.004883	-0.007629
35.246	0.016022	0.39902	0.039368	0.002441	-0.012817	-0.11856	-0.030212	-0.005646	0.25497	-0.065613	-0.027161	0.001984	0.01236	-0.04715	-0.22476	-0.003662	0.010376	0.13565	0.20447	0.018311	-0.089722	-0.034943	-0.008087	-0.14297	0.13763	0.017548	-0.010834	-0.052795	0.1976	-0.12039	-0.005341	-0.002136
35.247	0.012512	0.40787	0.04303	-0.001831	0.002747	-0.089417	-0.030518	0.000916	0.24551	-0.091248	-0.018768	0.003662	0.025482	-0.17273	-0.066528	-0.005798	0.014038	0.13748	0.3125	-0.057831	-0.14572	0.000153	0.014038	-0.12711	0.14069	0.005035	-0.059509	0.030212	-0.10239	-0.12634	-0.002441	-0.005188
35.248	0.008698	0.44952	0.034485	0.026245	0.016937	-0.086975	-0.015106	0.005493	0.24445	-0.075684	-0.021057	-0.001068	0.028229	-0.12985	-0.032043	-0.014954	0.012817	0.14374	0.36041	-0.050201	-0.10117	0.026245	0.008087	-0.062408	0.17929	-0.007324	-0.10635	0.083313	-0.15976	-0.30594	-0.005951	-0.004272
35.249	0.010681	0.4686	0.031128	0.016479	0.002594	-0.11078	-0.028992	0.000153	0.23239	-0.07019	-0.018463	0.003357	0.051727	-0.080414	-0.020142	-0.001526	0.016022	0.14648	0.42236	-0.048065	-0.05249	0.30731	0.051575	-0.042267	0.11322	-0.054321	0.009613	-0.17471	-0.11444	-0.12054	-0.003662	-0.003662
